<?xml version="1.0" standalone="no"?>
<!DOCTYPE svg PUBLIC "-//W3C//DTD SVG 20010904//EN"
 "http://www.w3.org/TR/2001/REC-SVG-20010904/DTD/svg10.dtd">
<svg version="1.0" xmlns="http://www.w3.org/2000/svg"
 width="1024.000000pt" height="1024.000000pt" viewBox="0 0 1024.000000 1024.000000"
 preserveAspectRatio="xMidYMid meet">
<metadata>
Created by potrace 1.14, written by Peter Selinger 2001-2017
</metadata>
<g transform="translate(0.000000,1024.000000) scale(0.100000,-0.100000)"
fill="#000000" stroke="none">
<path d="M4760 9400 c-323 -7 -356 -9 -545 -36 -315 -45 -433 -72 -540 -126
-69 -35 -175 -116 -199 -153 -29 -45 -21 -128 31 -297 3 -12 0 -18 -9 -18 -39
0 -198 -149 -198 -186 0 -7 -12 -16 -27 -20 -16 -3 -37 -8 -48 -11 -11 -3 -56
-33 -100 -66 -44 -33 -93 -63 -108 -68 -16 -4 -48 -19 -72 -33 l-43 -26 -110
73 c-84 55 -120 86 -152 130 -24 32 -66 78 -94 103 l-51 46 -65 -4 c-57 -4
-70 -2 -100 18 -26 18 -48 24 -91 24 -52 0 -62 -4 -108 -40 -63 -50 -141 -148
-141 -177 0 -12 -7 -34 -15 -50 -42 -79 -69 -163 -72 -224 l-5 -66 79 -53 c43
-30 98 -68 123 -85 25 -17 90 -56 145 -88 140 -79 130 -69 111 -106 -9 -17
-21 -31 -26 -31 -5 0 -30 18 -55 40 -64 55 -96 70 -153 70 -41 0 -54 -5 -86
-34 -35 -33 -37 -38 -34 -87 3 -48 6 -54 40 -73 20 -12 55 -37 77 -56 l42 -35
-26 -49 c-14 -27 -25 -58 -25 -68 0 -10 -28 -49 -63 -86 -34 -37 -73 -82 -86
-100 -31 -44 -80 -197 -81 -250 0 -35 -8 -52 -45 -98 -74 -90 -95 -141 -95
-227 0 -63 -5 -83 -31 -134 -25 -48 -32 -77 -36 -144 -5 -74 -9 -88 -34 -117
-16 -18 -29 -37 -29 -42 0 -6 -39 -10 -91 -10 -91 0 -93 -1 -135 -36 -42 -33
-44 -38 -44 -88 0 -28 5 -57 12 -64 8 -8 50 -12 125 -12 112 0 113 0 113 -24
0 -13 17 -59 37 -102 36 -78 43 -125 21 -151 -6 -8 -10 -75 -9 -165 1 -84 -1
-204 -5 -265 -9 -152 15 -257 73 -327 22 -27 23 -34 21 -149 l-3 -121 -35 -9
c-19 -5 -51 -22 -72 -39 -35 -27 -38 -34 -38 -78 0 -68 10 -73 130 -68 l100 4
0 -46 c0 -42 4 -50 39 -78 28 -23 50 -32 76 -32 19 0 38 -6 40 -12 46 -133 86
-192 161 -239 24 -14 34 -28 34 -45 0 -46 49 -130 108 -186 65 -62 64 -54 29
-218 -20 -93 -22 -132 -21 -350 1 -210 4 -261 23 -360 12 -63 29 -162 36 -220
17 -134 51 -376 70 -504 8 -55 15 -111 15 -126 0 -41 38 -70 91 -70 48 0 41
-4 381 213 281 179 313 200 368 237 30 21 89 56 130 78 42 23 95 58 118 78 37
32 42 40 42 79 0 42 1 44 23 36 14 -5 23 -18 25 -34 2 -16 18 -39 40 -57 30
-25 46 -30 87 -30 l50 0 -3 -95 c-5 -116 1 -125 72 -125 70 1 106 31 123 102
7 29 12 65 13 81 0 49 38 35 116 -46 39 -39 81 -85 93 -102 96 -130 90 -125
133 -125 27 0 50 8 74 26 28 22 34 33 34 65 l0 39 49 0 c29 0 53 6 60 14 9 11
23 2 74 -48 35 -34 86 -73 114 -89 47 -25 64 -28 224 -37 272 -17 345 -4 463
85 74 54 176 156 176 174 0 6 22 11 51 11 28 0 59 5 71 11 30 16 32 5 3 -29
-18 -22 -25 -41 -25 -74 0 -56 13 -68 70 -68 42 0 58 8 146 70 189 132 199
137 305 142 84 4 120 13 181 46 4 2 21 -43 38 -100 18 -57 39 -111 48 -120 25
-29 105 -24 148 9 34 26 35 29 32 82 -2 31 -8 64 -13 74 -7 18 -6 18 31 -1 37
-19 154 -94 254 -162 99 -67 229 -148 295 -185 39 -21 93 -54 120 -74 118 -86
195 -125 257 -129 52 -4 63 -1 99 24 54 37 61 53 70 159 5 49 13 117 18 150 6
33 15 92 20 130 12 83 33 219 68 440 22 137 26 194 27 400 1 167 -3 264 -13
319 l-14 79 29 21 c16 11 59 49 96 84 49 47 72 78 89 120 40 104 49 117 103
155 29 21 63 52 75 68 35 47 71 131 71 165 0 22 6 34 23 41 12 6 42 29 67 51
43 37 47 39 70 26 42 -23 107 -18 146 12 31 24 34 31 34 79 0 52 -2 54 -56
104 -30 28 -60 51 -66 51 -6 0 0 9 13 19 22 17 24 27 23 97 0 71 -2 79 -27
100 -35 30 -34 44 2 44 17 0 33 5 36 10 3 6 27 10 52 10 35 0 53 7 84 31 36
29 39 34 39 83 0 71 -19 89 -92 86 -126 -6 -121 -8 -140 63 -20 77 -8 157 24
157 10 0 36 9 58 20 22 11 46 20 54 20 8 0 36 18 63 39 50 39 50 39 61 122 16
112 15 171 -3 195 -8 10 -15 40 -15 65 0 53 -11 66 -60 71 -33 3 -35 5 -38 43
-2 38 0 42 53 82 l55 43 0 64 c0 89 -22 116 -93 116 l-53 0 4 43 c4 43 20 65
75 100 22 15 27 25 27 60 0 46 -13 67 -42 67 -16 0 -18 9 -18 74 0 41 5 78 10
81 6 3 10 30 10 60 0 30 -4 57 -10 60 -5 3 -10 32 -10 64 0 83 -8 88 -128 73
-53 -7 -115 -12 -137 -12 -22 -1 -49 -7 -59 -15 -11 -8 -30 -15 -41 -15 -20 0
-23 7 -29 76 -6 80 -22 116 -80 185 -75 88 -96 119 -96 136 0 43 -43 181 -70
223 -38 59 -126 140 -195 180 -30 17 -55 35 -55 40 0 9 52 44 160 110 131 79
311 204 320 220 18 34 12 115 -10 135 -11 10 -28 41 -39 70 -11 29 -32 70 -46
91 -15 21 -38 61 -52 89 -54 105 -90 135 -165 135 -24 0 -59 -8 -78 -19 -27
-14 -49 -17 -95 -14 l-60 5 -81 -60 c-60 -44 -83 -67 -87 -88 -8 -36 -69 -100
-133 -138 -27 -17 -72 -47 -101 -68 -29 -21 -54 -38 -56 -38 -3 0 -7 10 -11
23 -9 37 -81 113 -129 135 -35 16 -48 30 -61 62 -21 52 -20 63 3 84 10 9 35
43 55 76 38 61 49 133 24 158 -7 7 -36 12 -65 12 -51 0 -55 -2 -114 -60 l-61
-60 -18 22 c-14 18 -31 23 -84 26 -64 4 -67 3 -112 -33 l-45 -37 -24 22 c-27
25 -27 34 6 130 11 30 19 79 19 110 0 55 -1 57 -57 112 -32 31 -76 65 -98 76
-166 82 -402 142 -635 163 -69 5 -143 14 -165 19 -65 15 -333 30 -493 28 -81
-1 -289 -5 -462 -8z m-1125 -1239 c8 -58 15 -122 15 -143 l0 -38 -62 -1 c-87
-2 -77 -6 -196 73 -59 39 -132 87 -163 107 -49 32 -55 39 -44 54 7 9 23 17 36
17 33 0 118 24 154 43 40 21 115 86 116 100 0 7 21 26 47 43 l47 31 18 -91 c9
-50 24 -138 32 -195z m3166 242 c8 -9 32 -30 54 -46 39 -29 39 -29 10 -23 -16
4 -54 14 -83 22 l-52 15 16 24 c19 29 36 32 55 8z m1034 -996 c21 -42 49 -87
62 -99 13 -12 23 -33 23 -49 0 -54 23 -135 60 -216 27 -59 35 -84 27 -92 -6
-6 -15 -11 -20 -11 -13 0 -127 -90 -127 -100 0 -5 -35 -7 -82 -4 l-83 6 -55
57 c-30 31 -63 61 -73 66 -15 8 -18 24 -19 90 -2 77 0 84 49 185 77 161 110
239 129 308 l17 62 27 -63 c15 -35 44 -98 65 -140z m-5704 -490 l-26 -40 -3
37 c-2 23 3 48 14 63 l17 26 12 -23 c10 -19 9 -28 -14 -63z m-21 -331 c0 -13
7 -29 15 -36 14 -12 14 -15 -1 -31 -13 -14 -31 -19 -70 -19 l-52 0 -4 55 -3
55 58 0 c53 0 57 -1 57 -24z m33 -319 c9 -24 44 -69 77 -102 55 -54 63 -59
113 -63 34 -3 57 0 61 7 4 6 31 11 60 11 28 0 57 5 64 12 9 9 12 5 12 -18 0
-39 16 -54 59 -54 44 0 71 -24 71 -64 0 -24 -10 -39 -40 -63 -21 -18 -44 -33
-50 -33 -7 0 -30 -14 -51 -31 -35 -28 -39 -35 -39 -77 0 -63 20 -82 82 -82 35
0 58 6 75 20 18 14 41 20 75 20 41 0 57 6 89 31 37 29 39 33 39 89 0 51 3 60
25 74 14 9 25 23 25 31 0 10 10 15 26 15 23 0 25 -2 13 -16 -9 -11 -14 -54
-15 -136 l-2 -120 -59 -40 c-32 -22 -65 -46 -73 -53 -8 -7 -35 -15 -59 -18
-26 -3 -61 -18 -84 -35 -41 -29 -41 -30 -58 -133 -23 -137 -32 -161 -74 -183
-26 -14 -45 -17 -82 -12 -99 14 -182 18 -215 12 -42 -8 -143 -95 -152 -131
l-7 -26 -18 22 c-14 18 -17 30 -10 53 24 83 1 309 -36 356 -39 51 -54 90 -44
122 16 58 11 230 -9 295 -11 35 -16 67 -11 79 4 10 8 36 8 56 1 26 7 40 20 48
33 17 61 74 61 123 0 50 -5 47 95 55 15 1 25 -9 38 -41z m6030 -1261 c27 -21
21 -74 -19 -154 -29 -60 -36 -89 -41 -159 l-6 -85 -57 -45 c-44 -34 -66 -61
-94 -115 -20 -38 -36 -81 -36 -95 0 -22 -42 -73 -61 -73 -4 0 -30 -18 -58 -40
l-50 -40 -47 46 -46 47 35 31 c35 31 36 33 43 129 6 92 8 97 29 97 23 0 115
64 115 80 0 6 13 10 29 10 19 0 47 14 79 40 53 41 66 71 61 133 -3 27 4 39 40
73 36 33 44 48 48 87 6 51 9 53 36 33z m-433 -93 c0 -10 3 -34 6 -54 l6 -37
-65 5 c-63 5 -68 4 -106 -27 -28 -21 -41 -39 -41 -56 0 -14 -7 -27 -17 -31
-10 -3 -26 -13 -35 -21 -16 -13 -19 -12 -27 9 -7 18 -5 29 8 44 10 11 36 42
59 69 23 27 42 54 42 60 0 6 7 22 16 34 13 19 24 22 85 22 59 0 69 -3 69 -17z
m-5105 -309 c13 -13 33 -24 45 -24 14 0 20 -7 20 -22 0 -21 -1 -21 -20 -3 -13
11 -41 20 -76 23 -46 4 -61 1 -84 -17 -31 -22 -90 -29 -90 -10 0 6 17 28 38
48 35 35 40 37 90 33 39 -3 60 -11 77 -28z m3584 -819 c22 -5 32 -14 36 -31 3
-13 8 -36 11 -51 9 -43 101 -129 154 -143 69 -19 186 -8 248 24 28 14 54 26
57 26 3 0 5 -12 5 -27 0 -35 -71 -103 -108 -103 -14 0 -44 -16 -69 -36 l-44
-36 2 -69 c1 -38 -1 -72 -4 -76 -4 -3 -7 -26 -7 -50 l0 -43 -58 0 c-35 0 -66
-6 -79 -15 -23 -16 -26 -12 -54 80 -17 60 -35 75 -86 75 -32 0 -54 -7 -79 -26
-32 -25 -34 -30 -34 -83 0 -35 10 -86 25 -131 14 -40 22 -76 19 -79 -3 -3 -64
-6 -137 -6 -144 -1 -181 -10 -265 -68 -34 -22 -42 -25 -34 -11 26 50 62 136
62 148 0 7 13 40 29 72 15 32 37 79 48 104 11 25 39 68 62 95 23 28 56 75 73
105 17 30 41 66 53 80 39 44 64 128 71 237 l7 103 33 -29 c18 -16 46 -32 63
-36z m-2137 -296 c13 -23 32 -58 43 -78 11 -20 29 -50 41 -66 11 -17 28 -43
36 -60 8 -16 33 -64 56 -106 22 -42 54 -110 71 -150 18 -41 36 -82 42 -92 14
-25 6 -31 -21 -17 -40 21 -115 40 -163 40 -32 0 -58 7 -76 19 -15 11 -54 28
-86 39 -48 16 -61 25 -63 44 -5 30 -20 48 -50 59 -19 7 -23 14 -18 32 3 12 9
61 12 109 8 96 -7 138 -46 138 -15 0 -20 7 -20 29 0 17 -5 33 -10 36 -15 10 6
32 51 55 20 11 54 36 75 56 22 20 48 40 59 44 17 6 21 1 32 -41 7 -27 23 -68
35 -90z m-690 -36 c10 -22 22 -29 53 -34 22 -3 59 -15 82 -27 25 -13 60 -22
87 -22 41 0 45 -2 48 -27 2 -18 12 -32 26 -38 20 -9 22 -15 16 -50 -3 -22 -8
-43 -10 -46 -2 -4 -25 4 -51 17 -27 13 -60 24 -75 24 -17 0 -41 14 -70 42 -25
24 -81 59 -135 85 -72 33 -93 48 -93 63 0 14 7 20 23 20 12 0 29 5 37 10 26
17 49 11 62 -17z m3379 -173 c-53 -53 -61 -58 -61 -37 0 24 64 87 88 87 20 0
17 -6 -27 -50z m-151 -435 c0 -14 -2 -25 -4 -25 -2 0 -6 11 -8 25 -3 14 -1 25
3 25 5 0 9 -11 9 -25z"/>
</g>
</svg>
